HIERARCHY
ROOT SpineBase
{
  OFFSET 0.000000 0.000000 0.000000
  CHANNELS 6 Xposition Yposition Zposition Zrotation Xrotation Yrotation
  JOINT SpineMid
  {
    OFFSET 0.000000 28.465714 0.000000
    CHANNELS 3 Zrotation Xrotation Yrotation
    JOINT SpineShoulder
    {
      OFFSET -0.085958 21.095102 -0.685350
      CHANNELS 3 Zrotation Xrotation Yrotation
      JOINT Neck
      {
        OFFSET -0.061796 6.981185 -0.524058
        CHANNELS 3 Zrotation Xrotation Yrotation
        JOINT Head
        {
          OFFSET 4.899827 12.671053 0.661699
          CHANNELS 3 Zrotation Xrotation Yrotation
          End Site
          {
            OFFSET 0 0 0
          }
        }
      }
      JOINT ShoulderLeft
      {
        OFFSET -13.192055 -3.565874 -7.786597
        CHANNELS 3 Zrotation Xrotation Yrotation
        JOINT ElbowLeft
        {
          OFFSET -5.926835 -23.422872 -0.899038
          CHANNELS 3 Zrotation Xrotation Yrotation
          JOINT WristLeft
          {
            OFFSET -0.057540 -19.730351 -4.654305
            CHANNELS 3 Zrotation Xrotation Yrotation
            JOINT HandLeft
            {
              OFFSET 0.649522 -6.793683 0.596576
              CHANNELS 3 Zrotation Xrotation Yrotation
              JOINT HandTipLeft
              {
                OFFSET -0.529670 -6.769826 -0.192516
                CHANNELS 3 Zrotation Xrotation Yrotation
                End Site
                {
                  OFFSET 0 0 0
                }
              }
              JOINT ThumbLeft
              {
                OFFSET 3.129810 0.630536 -0.138187
                CHANNELS 3 Zrotation Xrotation Yrotation
                End Site
                {
                  OFFSET 0 0 0
                }
              }
            }
          }
        }
      }
      JOINT ShoulderRight
      {
        OFFSET 15.214361 -5.709266 3.947125
        CHANNELS 3 Zrotation Xrotation Yrotation
        JOINT ElbowRight
        {
          OFFSET 2.043961 -25.331953 3.381783
          CHANNELS 3 Zrotation Xrotation Yrotation
          JOINT WristRight
          {
            OFFSET -1.780232 -21.563957 -4.458633
            CHANNELS 3 Zrotation Xrotation Yrotation
            JOINT HandRight
            {
              OFFSET -0.437346 -5.709943 -0.149604
              CHANNELS 3 Zrotation Xrotation Yrotation
              JOINT HandTipRight
              {
                OFFSET 0.294351 -5.617274 0.432204
                CHANNELS 3 Zrotation Xrotation Yrotation
                End Site
                {
                  OFFSET 0 0 0
                }
              }
              JOINT ThumbRight
              {
                OFFSET -3.039510 0.188999 -2.591862
                CHANNELS 3 Zrotation Xrotation Yrotation
                End Site
                {
                  OFFSET 0 0 0
                }
              }
            }
          }
        }
      }
    }
  }
  JOINT HipLeft
  {
    OFFSET -6.383819 1.539544 -5.370547
    CHANNELS 3 Zrotation Xrotation Yrotation
    JOINT KneeLeft
    {
      OFFSET -6.635365 -27.938707 5.756021
      CHANNELS 3 Zrotation Xrotation Yrotation
      JOINT AnkleLeft
      {
        OFFSET -4.341358 -34.361260 8.746324
        CHANNELS 3 Zrotation Xrotation Yrotation
        JOINT FootLeft
        {
          OFFSET 3.083907 -3.927559 -11.867924
          CHANNELS 3 Zrotation Xrotation Yrotation
          End Site
          {
            OFFSET 0 0 0
          }
        }
      }
    }
  }
  JOINT HipRight
  {
    OFFSET 5.719455 0.055185 -0.976885
    CHANNELS 3 Zrotation Xrotation Yrotation
    JOINT KneeRight
    {
      OFFSET -10.437008 -33.744793 8.815622
      CHANNELS 3 Zrotation Xrotation Yrotation
      JOINT AnkleRight
      {
        OFFSET -6.319158 -26.852872 4.880574
        CHANNELS 3 Zrotation Xrotation Yrotation
        JOINT FootRight
        {
          OFFSET -5.783155 -5.322599 -6.156947
          CHANNELS 3 Zrotation Xrotation Yrotation
          End Site
          {
            OFFSET 0 0 0
          }
        }
      }
    }
  }
}
MOTION
Frames: 15
Frame Time: 0.033333
109.658929 66.869650 323.632543 -7.373734 -4.861835 -6.829220 0.597865 0.176544 6.256983 0.269499 0.310918 -0.279925 3.420244 9.625157 -1.168870 0.000000 0.000000 0.000000 -41.997865 -2.766497 4.361702 -16.399764 10.694096 20.852869 -14.315196 24.581253 -5.824190 -5.268427 -12.951074 -7.084687 0.000000 0.000000 0.000000 0.000000 0.000000 0.000000 54.231138 -1.532909 5.017077 36.323280 -7.408128 -26.221052 29.396273 17.169212 -0.498474 -5.149775 -4.137226 23.261509 0.000000 0.000000 0.000000 0.000000 0.000000 0.000000 38.147998 23.326201 0.996698 -17.218932 -17.818707 1.461053 -24.861559 -26.724698 -27.330526 0.000000 0.000000 0.000000 28.517622 19.849036 3.389418 -42.448580 -18.449628 -10.598429 38.986177 19.557194 -42.906844 0.000000 0.000000 0.000000
113.692775 66.349891 324.183964 -5.400742 -5.473301 -5.386219 0.889227 0.258999 4.923782 0.086356 0.454638 -0.191282 2.787239 10.106537 -1.541309 0.000000 0.000000 0.000000 -39.219930 -4.935306 4.000141 -16.700408 10.178328 18.691470 -14.894171 26.501885 -2.730281 -5.162028 -12.432452 -6.259745 0.000000 0.000000 0.000000 0.000000 0.000000 0.000000 50.122855 -1.051833 4.364363 35.608349 -8.652497 -23.506682 28.382269 15.767359 0.320027 0.332532 -9.960940 31.037642 0.000000 0.000000 0.000000 0.000000 0.000000 0.000000 33.218478 21.667460 0.457597 -13.504647 -15.966781 2.218440 -20.645379 -16.980639 -13.123791 0.000000 0.000000 0.000000 22.385875 21.240818 0.925816 -30.911273 -22.729681 -6.338309 33.911208 19.683244 -46.020009 0.000000 0.000000 0.000000
117.447331 65.811304 324.956638 -3.534005 -6.207137 -3.959977 0.946055 0.325846 3.614186 0.017519 0.563089 -0.118750 2.517557 10.713656 -1.934842 0.000000 0.000000 0.000000 -36.074090 -6.018404 3.991808 -16.036195 9.175136 15.969993 -17.174504 27.858044 -0.141793 -2.257082 -11.747245 -4.170994 0.000000 0.000000 0.000000 0.000000 0.000000 0.000000 45.584915 -1.610905 3.937227 35.193446 -9.222198 -21.680536 28.531308 14.962167 -0.249750 2.577218 -12.779807 33.566356 0.000000 0.000000 0.000000 0.000000 0.000000 0.000000 28.207605 22.052115 -1.131503 -11.278962 -17.675031 3.038519 -16.965240 -5.748597 -2.408216 0.000000 0.000000 0.000000 16.760110 22.432841 -1.157686 -18.293454 -24.447417 -0.827722 29.963714 17.932948 -51.624941 0.000000 0.000000 0.000000
120.549399 65.568372 325.728912 -2.137986 -6.902314 -2.664359 1.019214 0.405644 2.413990 0.033575 0.635941 -0.065217 1.999033 11.298600 -2.201556 0.000000 0.000000 0.000000 -31.731388 -6.773317 4.052144 -15.074039 7.760120 12.862915 -22.720422 32.038586 5.925494 2.450278 -17.092594 -5.851989 0.000000 0.000000 0.000000 0.000000 0.000000 0.000000 40.656651 -2.574503 3.565564 35.368321 -10.604758 -19.247979 27.551385 15.678819 -3.536202 3.893797 -15.237515 34.638434 0.000000 0.000000 0.000000 0.000000 0.000000 0.000000 24.943679 22.825878 -2.758876 -10.183753 -18.080658 3.206226 -15.584042 -0.737125 4.004414 0.000000 0.000000 0.000000 11.208001 23.635582 -2.905837 -4.853398 -24.206796 5.311695 19.312047 17.800415 -46.630160 0.000000 0.000000 0.000000
123.135911 65.442522 326.599789 -1.048929 -7.665841 -1.680841 0.898174 0.488424 1.516384 0.063774 0.694406 -0.032394 2.145135 12.145089 -2.579434 0.000000 0.000000 0.000000 -27.500006 -6.829082 4.206666 -13.546741 6.652917 10.092777 -23.727854 34.516234 9.069238 1.559287 -16.222717 -5.554826 0.000000 0.000000 0.000000 0.000000 0.000000 0.000000 37.201372 -3.637778 3.296274 34.595343 -11.019176 -17.915760 28.187105 11.876049 0.241228 5.145173 -12.559572 28.954788 0.000000 0.000000 0.000000 0.000000 0.000000 0.000000 25.818691 24.236020 -4.618029 -15.347277 -18.805571 0.854906 -11.894831 1.266905 6.681144 0.000000 0.000000 0.000000 7.884875 24.370418 -3.954963 2.165664 -21.838194 8.031664 12.683493 19.378891 -44.229028 0.000000 0.000000 0.000000
125.690762 65.518349 327.536323 0.159305 -8.300186 -0.825002 0.693262 0.460478 0.778350 0.105376 0.658413 0.000093 2.498696 12.443597 -2.775975 0.000000 0.000000 0.000000 -22.985889 -6.979161 4.359586 -12.580525 7.341039 8.170713 -23.092033 32.775556 7.752097 -0.002529 -16.156600 -5.311821 0.000000 0.000000 0.000000 0.000000 0.000000 0.000000 33.617758 -4.852144 3.011806 33.849920 -11.800660 -16.382837 24.816623 11.819892 -0.664748 5.886583 -14.961217 28.240234 0.000000 0.000000 0.000000 0.000000 0.000000 0.000000 27.229573 25.344735 -6.301084 -22.126136 -19.226928 -2.375917 -7.522691 -0.324078 7.169127 0.000000 0.000000 0.000000 6.415436 23.838331 -4.337204 2.039577 -18.382423 6.838013 12.842814 16.943915 -43.406716 0.000000 0.000000 0.000000
127.624200 65.782554 328.499087 0.749348 -8.686690 0.042661 0.528359 0.399892 -0.022698 0.302248 0.565663 0.012592 2.959881 11.801633 -2.559160 0.000000 0.000000 0.000000 -18.239420 -7.266729 4.439910 -11.656289 8.762238 6.458004 -19.435543 30.848186 5.735698 -3.015247 -13.846762 -4.745761 0.000000 0.000000 0.000000 0.000000 0.000000 0.000000 31.021939 -5.921211 2.811142 31.723778 -12.056593 -14.958786 23.824551 10.047789 0.163197 2.495254 -15.950632 24.833528 0.000000 0.000000 0.000000 0.000000 0.000000 0.000000 26.584176 25.022526 -7.032666 -24.341589 -17.370599 -3.927578 -5.088914 0.640247 9.884869 0.000000 0.000000 0.000000 5.830021 23.805880 -5.081614 0.512185 -14.709617 5.036228 14.800988 9.504982 -39.693442 0.000000 0.000000 0.000000
129.381399 65.999743 329.344259 1.310879 -8.880046 0.787708 0.289506 0.396003 -0.696594 0.380229 0.457362 0.023421 3.781042 10.588273 -2.195834 0.000000 0.000000 0.000000 -14.336191 -7.644644 4.470053 -10.130412 11.066304 4.850358 -15.828824 28.713519 4.039934 -5.181416 -11.948562 -4.492245 0.000000 0.000000 0.000000 0.000000 0.000000 0.000000 28.773795 -6.871426 2.665560 29.796078 -12.634365 -13.382668 20.741370 9.488951 0.306394 0.316686 -12.706297 18.370498 0.000000 0.000000 0.000000 0.000000 0.000000 0.000000 26.366582 24.894127 -7.777037 -26.434451 -15.672465 -5.270396 -3.295289 -2.831846 10.496049 0.000000 0.000000 0.000000 3.421413 25.778209 -6.429312 -0.631858 -18.538932 5.389923 22.231753 2.682055 -38.661330 0.000000 0.000000 0.000000
130.571871 66.231441 329.880591 1.447572 -8.690485 1.609784 -0.024981 0.355306 -1.489976 0.609474 0.287868 0.018587 5.409445 9.066637 -1.865514 0.000000 0.000000 0.000000 -10.292929 -8.513944 4.508873 -9.558868 13.874708 3.619360 -12.098966 29.893001 4.088596 -5.841211 -11.712737 -5.344525 0.000000 0.000000 0.000000 0.000000 0.000000 0.000000 27.192693 -7.681669 2.605727 27.477428 -13.121635 -11.818274 15.245794 7.965457 2.408206 0.272994 -7.998483 11.442874 0.000000 0.000000 0.000000 0.000000 0.000000 0.000000 26.582407 23.923602 -8.232071 -27.926373 -14.347060 -6.115475 -2.338522 -1.529834 13.363348 0.000000 0.000000 0.000000 2.802441 27.001519 -7.814338 0.980025 -21.123209 6.806689 30.879018 -12.197595 -39.644752 0.000000 0.000000 0.000000
131.940046 66.259905 330.598118 1.686411 -8.707077 2.127273 0.193136 0.260115 -1.991263 0.515180 0.320384 0.035416 6.563530 7.872414 -1.596224 0.000000 0.000000 0.000000 -8.023434 -9.250367 4.621411 -8.596055 17.723065 2.642356 -6.000316 27.924511 2.575252 -9.101907 -7.838102 -5.984178 0.000000 0.000000 0.000000 0.000000 0.000000 0.000000 25.602116 -8.198584 2.504436 24.894481 -13.942233 -10.079017 6.764651 9.050968 3.351915 1.627635 -11.966968 10.766689 0.000000 0.000000 0.000000 0.000000 0.000000 0.000000 26.590522 23.894511 -8.813258 -29.968985 -16.206078 -6.927508 -0.605771 -2.078307 12.596093 0.000000 0.000000 0.000000 4.985266 26.244591 -8.235325 -6.434393 -20.584745 3.061186 63.429291 -46.068214 -21.983185 0.000000 0.000000 0.000000
132.913164 66.230023 331.152124 1.813340 -8.602133 2.362250 0.220574 0.179273 -2.214089 0.455001 0.278357 0.042427 7.490407 6.757908 -1.255638 0.000000 0.000000 0.000000 -5.668057 -10.034892 4.763294 -8.472511 20.759415 1.906655 -3.255026 28.827281 2.737065 -7.290991 -5.658229 -6.173289 0.000000 0.000000 0.000000 0.000000 0.000000 0.000000 24.743011 -8.712190 2.476150 21.464563 -14.353486 -8.511612 -2.317282 6.252713 7.266261 5.515444 -9.933343 5.632887 0.000000 0.000000 0.000000 0.000000 0.000000 0.000000 27.021692 24.005886 -9.205411 -31.306541 -18.363899 -7.335530 -0.085074 -2.417906 11.699818 0.000000 0.000000 0.000000 9.924215 23.131057 -7.470214 -15.589103 -17.462930 -1.320849 105.928710 -54.178288 26.449660 0.000000 0.000000 0.000000
133.833959 66.245631 331.720358 2.062744 -8.592604 2.741713 0.173024 0.164190 -2.564915 0.450573 0.293878 0.050103 7.669055 5.714554 -0.817457 0.000000 0.000000 0.000000 -3.877684 -10.710253 4.907162 -9.168515 23.504796 1.712365 -0.941473 30.227538 2.997563 -5.781868 -4.063374 -6.645919 0.000000 0.000000 0.000000 0.000000 0.000000 0.000000 23.650963 -9.013759 2.396689 18.496050 -15.552209 -6.672598 -9.450014 7.381485 8.369590 2.463817 -7.433529 2.576267 0.000000 0.000000 0.000000 0.000000 0.000000 0.000000 25.403777 24.015808 -9.443448 -29.571720 -20.834555 -6.469616 -0.676500 -2.071015 10.795051 0.000000 0.000000 0.000000 14.477751 19.649507 -6.318947 -21.514294 -14.712685 -3.603089 115.575430 -45.393350 58.823200 0.000000 0.000000 0.000000
134.377790 66.312249 331.999579 2.200314 -8.408875 2.957267 0.105340 0.211962 -2.766149 0.452731 0.387655 0.053332 7.531024 4.561933 -0.347729 0.000000 0.000000 0.000000 -3.252028 -11.181856 4.928413 -8.635354 25.483629 1.275199 -1.895592 31.671257 3.718756 -4.115500 -4.241586 -6.893391 0.000000 0.000000 0.000000 0.000000 0.000000 0.000000 22.810627 -9.537984 2.446767 15.486834 -16.646063 -5.012177 -14.658872 7.614749 9.650352 1.202994 -2.992041 -0.036553 0.000000 0.000000 0.000000 0.000000 0.000000 0.000000 23.127263 23.135399 -8.952518 -25.743560 -21.999982 -4.590323 -2.581946 -1.519573 10.045190 0.000000 0.000000 0.000000 18.990598 15.213794 -4.174531 -25.547336 -11.899879 -4.672955 104.112507 -44.436926 59.420887 0.000000 0.000000 0.000000
134.408778 66.436823 331.930550 2.022958 -8.032822 3.040720 0.056869 0.298940 -2.871909 0.482435 0.500877 0.047088 7.507496 3.383165 0.072208 0.000000 0.000000 0.000000 -3.132472 -11.676532 4.884889 -8.379618 26.853228 1.281498 -5.039606 34.348090 5.029987 -1.021447 -6.427943 -6.546415 0.000000 0.000000 0.000000 0.000000 0.000000 0.000000 21.779600 -10.176365 2.495626 13.490328 -17.935759 -3.524461 -15.378403 5.762195 10.331870 2.519375 3.697221 -2.477766 0.000000 0.000000 0.000000 0.000000 0.000000 0.000000 21.454499 21.055497 -7.856690 -21.533287 -21.354579 -2.538990 -5.207487 -0.682717 9.697658 0.000000 0.000000 0.000000 23.666910 10.483662 -1.351943 -28.228306 -9.145362 -5.027590 73.230271 -45.621330 27.757446 0.000000 0.000000 0.000000
134.581163 66.507863 331.809597 2.231033 -7.697037 2.928645 0.072075 0.377971 -2.745820 0.513730 0.598335 0.057880 6.123462 2.721847 0.374605 0.000000 0.000000 0.000000 -4.735371 -11.743105 4.723004 -7.532390 28.243174 1.529983 -9.177906 34.257163 5.765313 0.644202 -6.281720 -5.956642 0.000000 0.000000 0.000000 0.000000 0.000000 0.000000 20.479254 -10.755750 2.521202 12.033397 -18.688247 -2.549339 -11.361652 -2.467817 11.518190 -4.056601 14.934979 -3.192328 0.000000 0.000000 0.000000 0.000000 0.000000 0.000000 18.936324 18.531199 -6.342046 -17.820134 -19.804193 -1.072654 -6.908879 4.318706 12.085918 0.000000 0.000000 0.000000 28.026885 6.733173 1.658471 -31.185130 -7.024054 -5.270700 32.841619 -22.678488 -9.067704 0.000000 0.000000 0.000000
